{
	"asset":{
		"generator":"Khronos glTF Blender I/O v5.1.20",
		"version":"2.0"
	},
	"scene":0,
	"scenes":[
		{
			"name":"Scene",
			"nodes":[
				0
			]
		}
	],
	"nodes":[
		{
			"mesh":0,
			"name":"avalanche"
		}
	],
	"materials":[
		{
			"doubleSided":true,
			"name":"team",
			"pbrMetallicRoughness":{
				"baseColorFactor":[
					0.8199999928474426,
					0.8199999928474426,
					0.8500000238418579,
					1
				],
				"metallicFactor":0,
				"roughnessFactor":0.75
			}
		},
		{
			"doubleSided":true,
			"name":"base",
			"pbrMetallicRoughness":{
				"baseColorFactor":[
					0.3400000035762787,
					0.36000001430511475,
					0.4000000059604645,
					1
				],
				"metallicFactor":0,
				"roughnessFactor":0.75
			}
		}
	],
	"meshes":[
		{
			"name":"avalanche",
			"primitives":[
				{
					"attributes":{
						"POSITION":0,
						"NORMAL":1
					},
					"indices":2,
					"material":0
				},
				{
					"attributes":{
						"POSITION":3,
						"NORMAL":4
					},
					"indices":5,
					"material":1
				}
			]
		}
	],
	"accessors":[
		{
			"bufferView":0,
			"componentType":5126,
			"count":48,
			"max":[
				0.6200000047683716,
				0.9599999785423279,
				1.100000023841858
			],
			"min":[
				-0.6200000047683716,
				0.2199999988079071,
				-1.0499999523162842
			],
			"type":"VEC3"
		},
		{
			"bufferView":1,
			"componentType":5126,
			"count":48,
			"type":"VEC3"
		},
		{
			"bufferView":2,
			"componentType":5123,
			"count":72,
			"type":"SCALAR"
		},
		{
			"bufferView":3,
			"componentType":5126,
			"count":204,
			"max":[
				0.7400000095367432,
				1.100000023841858,
				1.0499999523162842
			],
			"min":[
				-0.7400000095367432,
				0.019999999552965164,
				-1.0499999523162842
			],
			"type":"VEC3"
		},
		{
			"bufferView":4,
			"componentType":5126,
			"count":204,
			"type":"VEC3"
		},
		{
			"bufferView":5,
			"componentType":5123,
			"count":360,
			"type":"SCALAR"
		}
	],
	"bufferViews":[
		{
			"buffer":0,
			"byteLength":576,
			"byteOffset":0,
			"target":34962
		},
		{
			"buffer":0,
			"byteLength":576,
			"byteOffset":576,
			"target":34962
		},
		{
			"buffer":0,
			"byteLength":144,
			"byteOffset":1152,
			"target":34963
		},
		{
			"buffer":0,
			"byteLength":2448,
			"byteOffset":1296,
			"target":34962
		},
		{
			"buffer":0,
			"byteLength":2448,
			"byteOffset":3744,
			"target":34962
		},
		{
			"buffer":0,
			"byteLength":720,
			"byteOffset":6192,
			"target":34963
		}
	],
	"buffers":[
		{
			"byteLength":6912,
			"uri":"avalanche-378fd782809c344d25cfab455aca99e2.bin"
		}
	]
}
