{
	"asset":{
		"generator":"Khronos glTF Blender I/O v5.1.20",
		"version":"2.0"
	},
	"scene":0,
	"scenes":[
		{
			"name":"Scene",
			"nodes":[
				0
			]
		}
	],
	"nodes":[
		{
			"mesh":0,
			"name":"Cylinder"
		}
	],
	"meshes":[
		{
			"name":"Cylinder",
			"primitives":[
				{
					"attributes":{
						"POSITION":0,
						"NORMAL":1,
						"TEXCOORD_0":2
					},
					"indices":3
				}
			]
		}
	],
	"accessors":[
		{
			"bufferView":0,
			"componentType":5126,
			"count":4160,
			"max":[
				0.5,
				1.25,
				0.5
			],
			"min":[
				-0.5,
				-1.25,
				-0.5
			],
			"type":"VEC3"
		},
		{
			"bufferView":1,
			"componentType":5126,
			"count":4160,
			"type":"VEC3"
		},
		{
			"bufferView":2,
			"componentType":5126,
			"count":4160,
			"type":"VEC2"
		},
		{
			"bufferView":3,
			"componentType":5123,
			"count":6132,
			"type":"SCALAR"
		}
	],
	"bufferViews":[
		{
			"buffer":0,
			"byteLength":49920,
			"byteOffset":0,
			"target":34962
		},
		{
			"buffer":0,
			"byteLength":49920,
			"byteOffset":49920,
			"target":34962
		},
		{
			"buffer":0,
			"byteLength":33280,
			"byteOffset":99840,
			"target":34962
		},
		{
			"buffer":0,
			"byteLength":12264,
			"byteOffset":133120,
			"target":34963
		}
	],
	"buffers":[
		{
			"byteLength":145384,
			"uri":"capsule-37e1d4b861ebbd6f7b218fc9ae1e7ace.bin"
		}
	]
}
