{
	"asset":{
		"generator":"Khronos glTF Blender I/O v5.1.20",
		"version":"2.0"
	},
	"scene":0,
	"scenes":[
		{
			"extras":{
				"automirror":{}
			},
			"name":"Scene",
			"nodes":[
				0
			]
		}
	],
	"nodes":[
		{
			"mesh":0,
			"name":"Cube",
			"scale":[
				0.44683343172073364,
				0.44683343172073364,
				0.44683343172073364
			]
		}
	],
	"materials":[
		{
			"doubleSided":true,
			"name":"Material",
			"pbrMetallicRoughness":{
				"baseColorTexture":{
					"index":0
				},
				"metallicFactor":0,
				"roughnessFactor":0.5
			}
		}
	],
	"meshes":[
		{
			"name":"Cube",
			"primitives":[
				{
					"attributes":{
						"POSITION":0,
						"NORMAL":1,
						"TEXCOORD_0":2,
						"TANGENT":3
					},
					"indices":4,
					"material":0
				}
			]
		}
	],
	"textures":[
		{
			"sampler":0,
			"source":0
		}
	],
	"images":[
		{
			"mimeType":"image/png",
			"name":"carronade",
			"uri":"../../assets/meshes/entities/textures/carronade.png"
		}
	],
	"accessors":[
		{
			"bufferView":0,
			"componentType":5126,
			"count":1628,
			"max":[
				1.5616618394851685,
				1.3426250219345093,
				3.1749660968780518
			],
			"min":[
				-1.5616618394851685,
				-0.1166737973690033,
				-1.5283286571502686
			],
			"type":"VEC3"
		},
		{
			"bufferView":1,
			"componentType":5126,
			"count":1628,
			"type":"VEC3"
		},
		{
			"bufferView":2,
			"componentType":5126,
			"count":1628,
			"type":"VEC2"
		},
		{
			"bufferView":3,
			"componentType":5126,
			"count":1628,
			"type":"VEC4"
		},
		{
			"bufferView":4,
			"componentType":5123,
			"count":2808,
			"type":"SCALAR"
		}
	],
	"bufferViews":[
		{
			"buffer":0,
			"byteLength":19536,
			"byteOffset":0,
			"target":34962
		},
		{
			"buffer":0,
			"byteLength":19536,
			"byteOffset":19536,
			"target":34962
		},
		{
			"buffer":0,
			"byteLength":13024,
			"byteOffset":39072,
			"target":34962
		},
		{
			"buffer":0,
			"byteLength":26048,
			"byteOffset":52096,
			"target":34962
		},
		{
			"buffer":0,
			"byteLength":5616,
			"byteOffset":78144,
			"target":34963
		}
	],
	"samplers":[
		{
			"magFilter":9729,
			"minFilter":9987
		}
	],
	"buffers":[
		{
			"byteLength":83760,
			"uri":"carronade-06540de67c5df41815672a93d1846bc1.bin"
		}
	]
}
