{
	"asset":{
		"generator":"Khronos glTF Blender I/O v5.1.20",
		"version":"2.0"
	},
	"scene":0,
	"scenes":[
		{
			"name":"Scene",
			"nodes":[
				0
			]
		}
	],
	"nodes":[
		{
			"mesh":0,
			"name":"clipper"
		}
	],
	"materials":[
		{
			"doubleSided":true,
			"name":"team",
			"pbrMetallicRoughness":{
				"baseColorFactor":[
					0.8199999928474426,
					0.8199999928474426,
					0.8500000238418579,
					1
				],
				"metallicFactor":0,
				"roughnessFactor":0.75
			}
		},
		{
			"doubleSided":true,
			"name":"base",
			"pbrMetallicRoughness":{
				"baseColorFactor":[
					0.3400000035762787,
					0.36000001430511475,
					0.4000000059604645,
					1
				],
				"metallicFactor":0,
				"roughnessFactor":0.75
			}
		}
	],
	"meshes":[
		{
			"name":"clipper",
			"primitives":[
				{
					"attributes":{
						"POSITION":0,
						"NORMAL":1
					},
					"indices":2,
					"material":0
				},
				{
					"attributes":{
						"POSITION":3,
						"NORMAL":4
					},
					"indices":5,
					"material":1
				}
			]
		}
	],
	"accessors":[
		{
			"bufferView":0,
			"componentType":5126,
			"count":72,
			"max":[
				0.18000000715255737,
				0.5,
				0.800000011920929
			],
			"min":[
				-0.18000000715255737,
				0.10000000149011612,
				-1
			],
			"type":"VEC3"
		},
		{
			"bufferView":1,
			"componentType":5126,
			"count":72,
			"type":"VEC3"
		},
		{
			"bufferView":2,
			"componentType":5123,
			"count":108,
			"type":"SCALAR"
		},
		{
			"bufferView":3,
			"componentType":5126,
			"count":288,
			"max":[
				0.8500000238418579,
				0.6600000262260437,
				1
			],
			"min":[
				-0.8500000238418579,
				-0.10000000149011612,
				-1.0199999809265137
			],
			"type":"VEC3"
		},
		{
			"bufferView":4,
			"componentType":5126,
			"count":288,
			"type":"VEC3"
		},
		{
			"bufferView":5,
			"componentType":5123,
			"count":432,
			"type":"SCALAR"
		}
	],
	"bufferViews":[
		{
			"buffer":0,
			"byteLength":864,
			"byteOffset":0,
			"target":34962
		},
		{
			"buffer":0,
			"byteLength":864,
			"byteOffset":864,
			"target":34962
		},
		{
			"buffer":0,
			"byteLength":216,
			"byteOffset":1728,
			"target":34963
		},
		{
			"buffer":0,
			"byteLength":3456,
			"byteOffset":1944,
			"target":34962
		},
		{
			"buffer":0,
			"byteLength":3456,
			"byteOffset":5400,
			"target":34962
		},
		{
			"buffer":0,
			"byteLength":864,
			"byteOffset":8856,
			"target":34963
		}
	],
	"buffers":[
		{
			"byteLength":9720,
			"uri":"clipper-a1ac31a0a9778c402b27818e287b1514.bin"
		}
	]
}
