{
	"asset":{
		"generator":"Khronos glTF Blender I/O v5.1.20",
		"version":"2.0"
	},
	"scene":0,
	"scenes":[
		{
			"extras":{
				"automirror":{
					"orientation":1,
					"axis":2
				}
			},
			"name":"Scene",
			"nodes":[
				0,
				1,
				2
			]
		}
	],
	"nodes":[
		{
			"mesh":0,
			"name":"Cube",
			"scale":[
				0.45412006974220276,
				0.5236399173736572,
				0.2894895672798157
			],
			"translation":[
				0,
				0.6276786923408508,
				-0.14372891187667847
			]
		},
		{
			"mesh":1,
			"name":"Cylinder",
			"rotation":[
				0,
				0,
				-0.7071068286895752,
				0.7071068286895752
			],
			"scale":[
				0.14125889539718628,
				0.4515552520751953,
				0.14125889539718628
			],
			"translation":[
				0.001219195662997663,
				0.14222881197929382,
				0.3070804476737976
			]
		},
		{
			"mesh":2,
			"name":"Cylinder.001",
			"rotation":[
				0,
				0,
				-0.7071068286895752,
				0.7071068286895752
			],
			"scale":[
				0.14125889539718628,
				0.4515552520751953,
				0.14125889539718628
			],
			"translation":[
				0.001219195662997663,
				0.14222881197929382,
				-0.5963305830955505
			]
		}
	],
	"materials":[
		{
			"doubleSided":true,
			"name":"Material",
			"pbrMetallicRoughness":{
				"baseColorFactor":[
					0.800000011920929,
					0.800000011920929,
					0.800000011920929,
					1
				],
				"metallicFactor":0,
				"roughnessFactor":0.5
			}
		}
	],
	"meshes":[
		{
			"name":"Cube",
			"primitives":[
				{
					"attributes":{
						"POSITION":0,
						"NORMAL":1,
						"TEXCOORD_0":2,
						"TANGENT":3
					},
					"indices":4,
					"material":0
				}
			]
		},
		{
			"name":"Cylinder",
			"primitives":[
				{
					"attributes":{
						"POSITION":5,
						"NORMAL":6,
						"TEXCOORD_0":7
					},
					"indices":8
				}
			]
		},
		{
			"name":"Cylinder.001",
			"primitives":[
				{
					"attributes":{
						"POSITION":9,
						"NORMAL":10,
						"TEXCOORD_0":11
					},
					"indices":8
				}
			]
		}
	],
	"accessors":[
		{
			"bufferView":0,
			"componentType":5126,
			"count":264,
			"max":[
				1,
				0.17200791835784912,
				3.3338463306427
			],
			"min":[
				-1,
				-1.0000001192092896,
				-2.471787691116333
			],
			"type":"VEC3"
		},
		{
			"bufferView":1,
			"componentType":5126,
			"count":264,
			"type":"VEC3"
		},
		{
			"bufferView":2,
			"componentType":5126,
			"count":264,
			"type":"VEC2"
		},
		{
			"bufferView":3,
			"componentType":5126,
			"count":264,
			"type":"VEC4"
		},
		{
			"bufferView":4,
			"componentType":5123,
			"count":564,
			"type":"SCALAR"
		},
		{
			"bufferView":5,
			"componentType":5126,
			"count":192,
			"max":[
				1,
				1,
				1
			],
			"min":[
				-1,
				-1,
				-1
			],
			"type":"VEC3"
		},
		{
			"bufferView":6,
			"componentType":5126,
			"count":192,
			"type":"VEC3"
		},
		{
			"bufferView":7,
			"componentType":5126,
			"count":192,
			"type":"VEC2"
		},
		{
			"bufferView":8,
			"componentType":5123,
			"count":372,
			"type":"SCALAR"
		},
		{
			"bufferView":9,
			"componentType":5126,
			"count":192,
			"max":[
				1,
				1,
				1
			],
			"min":[
				-1,
				-1,
				-1
			],
			"type":"VEC3"
		},
		{
			"bufferView":10,
			"componentType":5126,
			"count":192,
			"type":"VEC3"
		},
		{
			"bufferView":11,
			"componentType":5126,
			"count":192,
			"type":"VEC2"
		}
	],
	"bufferViews":[
		{
			"buffer":0,
			"byteLength":3168,
			"byteOffset":0,
			"target":34962
		},
		{
			"buffer":0,
			"byteLength":3168,
			"byteOffset":3168,
			"target":34962
		},
		{
			"buffer":0,
			"byteLength":2112,
			"byteOffset":6336,
			"target":34962
		},
		{
			"buffer":0,
			"byteLength":4224,
			"byteOffset":8448,
			"target":34962
		},
		{
			"buffer":0,
			"byteLength":1128,
			"byteOffset":12672,
			"target":34963
		},
		{
			"buffer":0,
			"byteLength":2304,
			"byteOffset":13800,
			"target":34962
		},
		{
			"buffer":0,
			"byteLength":2304,
			"byteOffset":16104,
			"target":34962
		},
		{
			"buffer":0,
			"byteLength":1536,
			"byteOffset":18408,
			"target":34962
		},
		{
			"buffer":0,
			"byteLength":744,
			"byteOffset":19944,
			"target":34963
		},
		{
			"buffer":0,
			"byteLength":2304,
			"byteOffset":20688,
			"target":34962
		},
		{
			"buffer":0,
			"byteLength":2304,
			"byteOffset":22992,
			"target":34962
		},
		{
			"buffer":0,
			"byteLength":1536,
			"byteOffset":25296,
			"target":34962
		}
	],
	"buffers":[
		{
			"byteLength":26832,
			"uri":"collective-aa8b16abbffd0df070759898033bfd62.bin"
		}
	]
}
