{
	"asset":{
		"generator":"Khronos glTF Blender I/O v5.1.20",
		"version":"2.0"
	},
	"scene":0,
	"scenes":[
		{
			"name":"Scene",
			"nodes":[
				0
			]
		}
	],
	"nodes":[
		{
			"mesh":0,
			"name":"drake"
		}
	],
	"materials":[
		{
			"doubleSided":true,
			"name":"team",
			"pbrMetallicRoughness":{
				"baseColorFactor":[
					0.8199999928474426,
					0.8199999928474426,
					0.8500000238418579,
					1
				],
				"metallicFactor":0,
				"roughnessFactor":0.75
			}
		},
		{
			"doubleSided":true,
			"name":"base",
			"pbrMetallicRoughness":{
				"baseColorFactor":[
					0.3400000035762787,
					0.36000001430511475,
					0.4000000059604645,
					1
				],
				"metallicFactor":0,
				"roughnessFactor":0.75
			}
		}
	],
	"meshes":[
		{
			"name":"drake",
			"primitives":[
				{
					"attributes":{
						"POSITION":0,
						"NORMAL":1
					},
					"indices":2,
					"material":0
				},
				{
					"attributes":{
						"POSITION":3,
						"NORMAL":4
					},
					"indices":5,
					"material":1
				}
			]
		}
	],
	"accessors":[
		{
			"bufferView":0,
			"componentType":5126,
			"count":96,
			"max":[
				0.949999988079071,
				0.30000001192092896,
				1.350000023841858
			],
			"min":[
				-0.949999988079071,
				0,
				-1.0499999523162842
			],
			"type":"VEC3"
		},
		{
			"bufferView":1,
			"componentType":5126,
			"count":96,
			"type":"VEC3"
		},
		{
			"bufferView":2,
			"componentType":5123,
			"count":156,
			"type":"SCALAR"
		},
		{
			"bufferView":3,
			"componentType":5126,
			"count":144,
			"max":[
				0.5199999809265137,
				0.800000011920929,
				0.6200000047683716
			],
			"min":[
				-0.5199999809265137,
				0.05999999865889549,
				-1.100000023841858
			],
			"type":"VEC3"
		},
		{
			"bufferView":4,
			"componentType":5126,
			"count":144,
			"type":"VEC3"
		},
		{
			"bufferView":5,
			"componentType":5123,
			"count":216,
			"type":"SCALAR"
		}
	],
	"bufferViews":[
		{
			"buffer":0,
			"byteLength":1152,
			"byteOffset":0,
			"target":34962
		},
		{
			"buffer":0,
			"byteLength":1152,
			"byteOffset":1152,
			"target":34962
		},
		{
			"buffer":0,
			"byteLength":312,
			"byteOffset":2304,
			"target":34963
		},
		{
			"buffer":0,
			"byteLength":1728,
			"byteOffset":2616,
			"target":34962
		},
		{
			"buffer":0,
			"byteLength":1728,
			"byteOffset":4344,
			"target":34962
		},
		{
			"buffer":0,
			"byteLength":432,
			"byteOffset":6072,
			"target":34963
		}
	],
	"buffers":[
		{
			"byteLength":6504,
			"uri":"drake-98574b175bf8c626f2ba62a9b8a7cd7e.bin"
		}
	]
}
