{
	"asset":{
		"generator":"Khronos glTF Blender I/O v5.1.20",
		"version":"2.0"
	},
	"scene":0,
	"scenes":[
		{
			"name":"Scene",
			"nodes":[
				0
			]
		}
	],
	"nodes":[
		{
			"mesh":0,
			"name":"irregular_dummy",
			"rotation":[
				0,
				0.9999845623970032,
				0,
				0.0055554695427417755
			],
			"scale":[
				0.7975980043411255,
				0.5498735904693604,
				0.7975980043411255
			]
		}
	],
	"materials":[
		{
			"name":"team",
			"pbrMetallicRoughness":{
				"baseColorFactor":[
					0.8500000238418579,
					0.2199999988079071,
					0.2199999988079071,
					1
				],
				"metallicFactor":0,
				"roughnessFactor":0.8999999761581421
			}
		},
		{
			"name":"base",
			"pbrMetallicRoughness":{
				"baseColorFactor":[
					0.6200000047683716,
					0.6200000047683716,
					0.6600000262260437,
					1
				],
				"metallicFactor":0,
				"roughnessFactor":0.8999999761581421
			}
		}
	],
	"meshes":[
		{
			"name":"irregular_dummy",
			"primitives":[
				{
					"attributes":{
						"POSITION":0,
						"NORMAL":1
					},
					"indices":2,
					"material":0
				},
				{
					"attributes":{
						"POSITION":3,
						"NORMAL":4
					},
					"indices":5,
					"material":1
				}
			]
		}
	],
	"accessors":[
		{
			"bufferView":0,
			"componentType":5126,
			"count":24,
			"max":[
				0.2199999988079071,
				1.149999976158142,
				0.1599999964237213
			],
			"min":[
				-0.2199999988079071,
				0,
				-0.1599999964237213
			],
			"type":"VEC3"
		},
		{
			"bufferView":1,
			"componentType":5126,
			"count":24,
			"type":"VEC3"
		},
		{
			"bufferView":2,
			"componentType":5123,
			"count":36,
			"type":"SCALAR"
		},
		{
			"bufferView":3,
			"componentType":5126,
			"count":48,
			"max":[
				0.1599999964237213,
				1.5,
				0.1599999964237213
			],
			"min":[
				-0.1599999964237213,
				1.149999976158142,
				-0.2800000011920929
			],
			"type":"VEC3"
		},
		{
			"bufferView":4,
			"componentType":5126,
			"count":48,
			"type":"VEC3"
		},
		{
			"bufferView":5,
			"componentType":5123,
			"count":72,
			"type":"SCALAR"
		}
	],
	"bufferViews":[
		{
			"buffer":0,
			"byteLength":288,
			"byteOffset":0,
			"target":34962
		},
		{
			"buffer":0,
			"byteLength":288,
			"byteOffset":288,
			"target":34962
		},
		{
			"buffer":0,
			"byteLength":72,
			"byteOffset":576,
			"target":34963
		},
		{
			"buffer":0,
			"byteLength":576,
			"byteOffset":648,
			"target":34962
		},
		{
			"buffer":0,
			"byteLength":576,
			"byteOffset":1224,
			"target":34962
		},
		{
			"buffer":0,
			"byteLength":144,
			"byteOffset":1800,
			"target":34963
		}
	],
	"buffers":[
		{
			"byteLength":1944,
			"uri":"dummy_bio-f31125ce69b56ae5182c6696e9c7467b.bin"
		}
	]
}
