{
	"asset":{
		"generator":"Khronos glTF Blender I/O v5.1.20",
		"version":"2.0"
	},
	"scene":0,
	"scenes":[
		{
			"name":"Scene",
			"nodes":[
				0
			]
		}
	],
	"nodes":[
		{
			"mesh":0,
			"name":"kobold"
		}
	],
	"materials":[
		{
			"doubleSided":true,
			"name":"team",
			"pbrMetallicRoughness":{
				"baseColorFactor":[
					0.8199999928474426,
					0.8199999928474426,
					0.8500000238418579,
					1
				],
				"metallicFactor":0,
				"roughnessFactor":0.75
			}
		},
		{
			"doubleSided":true,
			"name":"base",
			"pbrMetallicRoughness":{
				"baseColorFactor":[
					0.3400000035762787,
					0.36000001430511475,
					0.4000000059604645,
					1
				],
				"metallicFactor":0,
				"roughnessFactor":0.75
			}
		}
	],
	"meshes":[
		{
			"name":"kobold",
			"primitives":[
				{
					"attributes":{
						"POSITION":0,
						"NORMAL":1
					},
					"indices":2,
					"material":0
				},
				{
					"attributes":{
						"POSITION":3,
						"NORMAL":4
					},
					"indices":5,
					"material":1
				}
			]
		}
	],
	"accessors":[
		{
			"bufferView":0,
			"componentType":5126,
			"count":144,
			"max":[
				0.3799999952316284,
				0.6600000262260437,
				0.7200000286102295
			],
			"min":[
				-0.3799999952316284,
				0.1599999964237213,
				-0.7799999713897705
			],
			"type":"VEC3"
		},
		{
			"bufferView":1,
			"componentType":5126,
			"count":144,
			"type":"VEC3"
		},
		{
			"bufferView":2,
			"componentType":5123,
			"count":216,
			"type":"SCALAR"
		},
		{
			"bufferView":3,
			"componentType":5126,
			"count":240,
			"max":[
				0.4399999976158142,
				0.3316796123981476,
				0.6200000047683716
			],
			"min":[
				-0.4399999976158142,
				0.008320392109453678,
				-0.6700000166893005
			],
			"type":"VEC3"
		},
		{
			"bufferView":4,
			"componentType":5126,
			"count":240,
			"type":"VEC3"
		},
		{
			"bufferView":5,
			"componentType":5123,
			"count":432,
			"type":"SCALAR"
		}
	],
	"bufferViews":[
		{
			"buffer":0,
			"byteLength":1728,
			"byteOffset":0,
			"target":34962
		},
		{
			"buffer":0,
			"byteLength":1728,
			"byteOffset":1728,
			"target":34962
		},
		{
			"buffer":0,
			"byteLength":432,
			"byteOffset":3456,
			"target":34963
		},
		{
			"buffer":0,
			"byteLength":2880,
			"byteOffset":3888,
			"target":34962
		},
		{
			"buffer":0,
			"byteLength":2880,
			"byteOffset":6768,
			"target":34962
		},
		{
			"buffer":0,
			"byteLength":864,
			"byteOffset":9648,
			"target":34963
		}
	],
	"buffers":[
		{
			"byteLength":10512,
			"uri":"kobold-bdab9e59ad71b91b24ebd39902217994.bin"
		}
	]
}
