{
	"asset":{
		"generator":"Khronos glTF Blender I/O v5.1.20",
		"version":"2.0"
	},
	"scene":0,
	"scenes":[
		{
			"extras":{
				"automirror":{}
			},
			"name":"Scene",
			"nodes":[
				1
			]
		}
	],
	"nodes":[
		{
			"mesh":0,
			"name":"Turret",
			"translation":[
				0,
				0.8077561855316162,
				0.048569440841674805
			]
		},
		{
			"children":[
				0
			],
			"mesh":1,
			"name":"Hull",
			"scale":[
				0.44683343172073364,
				0.44683343172073364,
				0.44683343172073364
			]
		}
	],
	"materials":[
		{
			"doubleSided":true,
			"name":"Material",
			"pbrMetallicRoughness":{
				"baseColorTexture":{
					"index":0
				},
				"metallicFactor":0,
				"roughnessFactor":0.5
			}
		}
	],
	"meshes":[
		{
			"name":"Turret",
			"primitives":[
				{
					"attributes":{
						"POSITION":0,
						"NORMAL":1,
						"TEXCOORD_0":2,
						"TANGENT":3
					},
					"indices":4,
					"material":0
				}
			]
		},
		{
			"name":"Hull",
			"primitives":[
				{
					"attributes":{
						"POSITION":5,
						"NORMAL":6,
						"TEXCOORD_0":7,
						"TANGENT":8
					},
					"indices":9,
					"material":0
				}
			]
		}
	],
	"textures":[
		{
			"sampler":0,
			"source":0
		}
	],
	"images":[
		{
			"mimeType":"image/png",
			"name":"carronade",
			"uri":"../../assets/meshes/entities/textures/carronade.png"
		}
	],
	"accessors":[
		{
			"bufferView":0,
			"componentType":5126,
			"count":742,
			"max":[
				0.8213256001472473,
				0.5348688364028931,
				3.126396656036377
			],
			"min":[
				-0.8213256001472473,
				-0.13287901878356934,
				-1.493813395500183
			],
			"type":"VEC3"
		},
		{
			"bufferView":1,
			"componentType":5126,
			"count":742,
			"type":"VEC3"
		},
		{
			"bufferView":2,
			"componentType":5126,
			"count":742,
			"type":"VEC2"
		},
		{
			"bufferView":3,
			"componentType":5126,
			"count":742,
			"type":"VEC4"
		},
		{
			"bufferView":4,
			"componentType":5123,
			"count":1260,
			"type":"SCALAR"
		},
		{
			"bufferView":5,
			"componentType":5126,
			"count":886,
			"max":[
				1.5616618394851685,
				0.8688004612922668,
				1.799787998199463
			],
			"min":[
				-1.5616618394851685,
				-0.1166737973690033,
				-1.5283286571502686
			],
			"type":"VEC3"
		},
		{
			"bufferView":6,
			"componentType":5126,
			"count":886,
			"type":"VEC3"
		},
		{
			"bufferView":7,
			"componentType":5126,
			"count":886,
			"type":"VEC2"
		},
		{
			"bufferView":8,
			"componentType":5126,
			"count":886,
			"type":"VEC4"
		},
		{
			"bufferView":9,
			"componentType":5123,
			"count":1548,
			"type":"SCALAR"
		}
	],
	"bufferViews":[
		{
			"buffer":0,
			"byteLength":8904,
			"byteOffset":0,
			"target":34962
		},
		{
			"buffer":0,
			"byteLength":8904,
			"byteOffset":8904,
			"target":34962
		},
		{
			"buffer":0,
			"byteLength":5936,
			"byteOffset":17808,
			"target":34962
		},
		{
			"buffer":0,
			"byteLength":11872,
			"byteOffset":23744,
			"target":34962
		},
		{
			"buffer":0,
			"byteLength":2520,
			"byteOffset":35616,
			"target":34963
		},
		{
			"buffer":0,
			"byteLength":10632,
			"byteOffset":38136,
			"target":34962
		},
		{
			"buffer":0,
			"byteLength":10632,
			"byteOffset":48768,
			"target":34962
		},
		{
			"buffer":0,
			"byteLength":7088,
			"byteOffset":59400,
			"target":34962
		},
		{
			"buffer":0,
			"byteLength":14176,
			"byteOffset":66488,
			"target":34962
		},
		{
			"buffer":0,
			"byteLength":3096,
			"byteOffset":80664,
			"target":34963
		}
	],
	"samplers":[
		{
			"magFilter":9729,
			"minFilter":9987
		}
	],
	"buffers":[
		{
			"byteLength":83760,
			"uri":"matilda_split-6105b224118227e696a40ac8660d9cbf.bin"
		}
	]
}
