{
	"asset":{
		"generator":"Khronos glTF Blender I/O v5.1.20",
		"version":"2.0"
	},
	"scene":0,
	"scenes":[
		{
			"name":"Scene",
			"nodes":[
				0
			]
		}
	],
	"nodes":[
		{
			"mesh":0,
			"name":"reverence"
		}
	],
	"materials":[
		{
			"doubleSided":true,
			"name":"team",
			"pbrMetallicRoughness":{
				"baseColorFactor":[
					0.8199999928474426,
					0.8199999928474426,
					0.8500000238418579,
					1
				],
				"metallicFactor":0,
				"roughnessFactor":0.75
			}
		},
		{
			"doubleSided":true,
			"name":"base",
			"pbrMetallicRoughness":{
				"baseColorFactor":[
					0.3400000035762787,
					0.36000001430511475,
					0.4000000059604645,
					1
				],
				"metallicFactor":0,
				"roughnessFactor":0.75
			}
		}
	],
	"meshes":[
		{
			"name":"reverence",
			"primitives":[
				{
					"attributes":{
						"POSITION":0,
						"NORMAL":1
					},
					"indices":2,
					"material":0
				},
				{
					"attributes":{
						"POSITION":3,
						"NORMAL":4
					},
					"indices":5,
					"material":1
				}
			]
		}
	],
	"accessors":[
		{
			"bufferView":0,
			"componentType":5126,
			"count":96,
			"max":[
				0.8500000238418579,
				0.7200000286102295,
				0.8500000238418579
			],
			"min":[
				-0.8500000238418579,
				0.10000000149011612,
				-0.8500000238418579
			],
			"type":"VEC3"
		},
		{
			"bufferView":1,
			"componentType":5126,
			"count":96,
			"type":"VEC3"
		},
		{
			"bufferView":2,
			"componentType":5123,
			"count":180,
			"type":"SCALAR"
		},
		{
			"bufferView":3,
			"componentType":5126,
			"count":264,
			"max":[
				0.44999998807907104,
				1.1200000047683716,
				1
			],
			"min":[
				-0.44999998807907104,
				-0.20000000298023224,
				-0.44999998807907104
			],
			"type":"VEC3"
		},
		{
			"bufferView":4,
			"componentType":5126,
			"count":264,
			"type":"VEC3"
		},
		{
			"bufferView":5,
			"componentType":5123,
			"count":480,
			"type":"SCALAR"
		}
	],
	"bufferViews":[
		{
			"buffer":0,
			"byteLength":1152,
			"byteOffset":0,
			"target":34962
		},
		{
			"buffer":0,
			"byteLength":1152,
			"byteOffset":1152,
			"target":34962
		},
		{
			"buffer":0,
			"byteLength":360,
			"byteOffset":2304,
			"target":34963
		},
		{
			"buffer":0,
			"byteLength":3168,
			"byteOffset":2664,
			"target":34962
		},
		{
			"buffer":0,
			"byteLength":3168,
			"byteOffset":5832,
			"target":34962
		},
		{
			"buffer":0,
			"byteLength":960,
			"byteOffset":9000,
			"target":34963
		}
	],
	"buffers":[
		{
			"byteLength":9960,
			"uri":"reverence-6a625454e945a32b6688c7b44bbfce64.bin"
		}
	]
}
