{
	"asset":{
		"generator":"Khronos glTF Blender I/O v5.1.20",
		"version":"2.0"
	},
	"scene":0,
	"scenes":[
		{
			"name":"Scene",
			"nodes":[
				0
			]
		}
	],
	"nodes":[
		{
			"mesh":0,
			"name":"sleeper"
		}
	],
	"materials":[
		{
			"doubleSided":true,
			"name":"team",
			"pbrMetallicRoughness":{
				"baseColorFactor":[
					0.8199999928474426,
					0.8199999928474426,
					0.8500000238418579,
					1
				],
				"metallicFactor":0,
				"roughnessFactor":0.75
			}
		},
		{
			"doubleSided":true,
			"name":"base",
			"pbrMetallicRoughness":{
				"baseColorFactor":[
					0.3400000035762787,
					0.36000001430511475,
					0.4000000059604645,
					1
				],
				"metallicFactor":0,
				"roughnessFactor":0.75
			}
		}
	],
	"meshes":[
		{
			"name":"sleeper",
			"primitives":[
				{
					"attributes":{
						"POSITION":0,
						"NORMAL":1
					},
					"indices":2,
					"material":0
				},
				{
					"attributes":{
						"POSITION":3,
						"NORMAL":4
					},
					"indices":5,
					"material":1
				}
			]
		}
	],
	"accessors":[
		{
			"bufferView":0,
			"componentType":5126,
			"count":18,
			"max":[
				0.23999999463558197,
				1.149999976158142,
				0.20000000298023224
			],
			"min":[
				-0.23999999463558197,
				0,
				-0.14000000059604645
			],
			"type":"VEC3"
		},
		{
			"bufferView":1,
			"componentType":5126,
			"count":18,
			"type":"VEC3"
		},
		{
			"bufferView":2,
			"componentType":5123,
			"count":24,
			"type":"SCALAR"
		},
		{
			"bufferView":3,
			"componentType":5126,
			"count":48,
			"max":[
				0.1599999964237213,
				1.5,
				0.1599999964237213
			],
			"min":[
				-0.1599999964237213,
				1.149999976158142,
				-0.2800000011920929
			],
			"type":"VEC3"
		},
		{
			"bufferView":4,
			"componentType":5126,
			"count":48,
			"type":"VEC3"
		},
		{
			"bufferView":5,
			"componentType":5123,
			"count":72,
			"type":"SCALAR"
		}
	],
	"bufferViews":[
		{
			"buffer":0,
			"byteLength":216,
			"byteOffset":0,
			"target":34962
		},
		{
			"buffer":0,
			"byteLength":216,
			"byteOffset":216,
			"target":34962
		},
		{
			"buffer":0,
			"byteLength":48,
			"byteOffset":432,
			"target":34963
		},
		{
			"buffer":0,
			"byteLength":576,
			"byteOffset":480,
			"target":34962
		},
		{
			"buffer":0,
			"byteLength":576,
			"byteOffset":1056,
			"target":34962
		},
		{
			"buffer":0,
			"byteLength":144,
			"byteOffset":1632,
			"target":34963
		}
	],
	"buffers":[
		{
			"byteLength":1776,
			"uri":"sleeper-6934da3f88d6fff2f06918aed3d7b2ff.bin"
		}
	]
}
